<svg xmlns="http://www.w3.org/2000/svg" viewBox="0 0 750 500"><g id="freepik--background-simple--inject-143"><path d="M707.88,220.38c-7.39-44.74-22.33-89.63-52.79-123.66a174.83,174.83,0,0,0-75-49.32C522.18,28.21,453,30.82,398,57.79A166.81,166.81,0,0,0,374.07,72c-24.6,17.64-53.18,36.1-85,33.33-32.2-2.8-52.06-28.46-81-38.78C135,40.53,47.71,87.85,24.8,159,12,198.76,21.07,236.39,45.3,269.65c9.19,12.61,19.94,24,29.36,36.42,16.27,21.43,13.84,46.27,19,71.11,5.36,25.65,16.23,51.27,38.06,67.45,41.52,30.8,103.09,17.84,147.87,1.87,39-13.9,74.68-35.45,108.4-59.17,20.27-14.25,42.78-28,68.47-19.33,63.27,21.26,150.34,82.21,213.49,29.07,42.35-35.64,46.9-96.83,41.72-147.75C710.72,239.76,709.48,230.07,707.88,220.38Z" style="fill:#FF0066"></path><path d="M707.88,220.38c-7.39-44.74-22.33-89.63-52.79-123.66a174.83,174.83,0,0,0-75-49.32C522.18,28.21,453,30.82,398,57.79A166.81,166.81,0,0,0,374.07,72c-24.6,17.64-53.18,36.1-85,33.33-32.2-2.8-52.06-28.46-81-38.78C135,40.53,47.71,87.85,24.8,159,12,198.76,21.07,236.39,45.3,269.65c9.19,12.61,19.94,24,29.36,36.42,16.27,21.43,13.84,46.27,19,71.11,5.36,25.65,16.23,51.27,38.06,67.45,41.52,30.8,103.09,17.84,147.87,1.87,39-13.9,74.68-35.45,108.4-59.17,20.27-14.25,42.78-28,68.47-19.33,63.27,21.26,150.34,82.21,213.49,29.07,42.35-35.64,46.9-96.83,41.72-147.75C710.72,239.76,709.48,230.07,707.88,220.38Z" style="fill:#fff;opacity:0.7000000000000001"></path></g><g id="freepik--Graphics--inject-143"><g style="opacity:0.2"><path d="M476,67.66s-17.62-4.17-26.77-1.29-13.33,20.5-11.7,23.46,17.39,17.77,25.23,18.43S476.32,99.48,483,96.35s14.64,1.29,24.29,0,14.7-15,15.12-21.41,1.32-10.13.94-12.44-13.19-12.16-19.71-10.8S477.51,65.8,476,67.66Z" style="fill:none;stroke:#000;stroke-linecap:round;stroke-linejoin:round"></path><path d="M490.87,80.68s2.9-10.63,7.89-14.63,13.17,1.06,13.17,1.06-.66,7.84-5.84,11.21S490.87,80.68,490.87,80.68Z" style="fill:none;stroke:#000;stroke-linecap:round;stroke-linejoin:round"></path><path d="M475,86.38s-8.13-8.2-14.65-6.85A24,24,0,0,0,449.55,85s4.8,7.51,11.19,6.88S475,86.38,475,86.38Z" style="fill:none;stroke:#000;stroke-linecap:round;stroke-linejoin:round"></path><path d="M476,67.66s-6.82-5.14-9.37-8.85-1.16-5.88-.13-4.82-2.22-4.85,0-10.05,4.68,1.65,4.68,1.65.58-9.2,5.19-10,2.45,10,2.45,10,10.63-9.24,12.23-5.24-.2,6-.2,6,10.49-7.46,10.2-2.86-12.65,11.61-12.65,11.61,4.32-1.7,3,.79S479.12,63.21,476,67.66Z" style="fill:none;stroke:#000;stroke-linecap:round;stroke-linejoin:round"></path><path d="M483.86,54.81a26.46,26.46,0,0,1,2-2.06" style="fill:none;stroke:#000;stroke-linecap:round;stroke-linejoin:round"></path><path d="M474.6,52.14C474,56.84,476,67.66,476,67.66a55.7,55.7,0,0,1,5.79-10.27" style="fill:none;stroke:#000;stroke-linecap:round;stroke-linejoin:round"></path><line x1="462.03" y1="96" x2="461.89" y2="104.37" style="fill:none;stroke:#000;stroke-linecap:round;stroke-linejoin:round"></line><line x1="470.16" y1="92.05" x2="470.62" y2="102.32" style="fill:none;stroke:#000;stroke-linecap:round;stroke-linejoin:round"></line><line x1="497.11" y1="82.88" x2="497.78" y2="92.73" style="fill:none;stroke:#000;stroke-linecap:round;stroke-linejoin:round"></line><line x1="508.56" y1="80.66" x2="514.13" y2="91.75" style="fill:none;stroke:#000;stroke-linecap:round;stroke-linejoin:round"></line><line x1="514.15" y1="71.96" x2="521.06" y2="71.87" style="fill:none;stroke:#000;stroke-linecap:round;stroke-linejoin:round"></line><line x1="512.39" y1="64.19" x2="516.24" y2="59.86" style="fill:none;stroke:#000;stroke-linecap:round;stroke-linejoin:round"></line><line x1="504.81" y1="54.43" x2="504.47" y2="62.17" style="fill:none;stroke:#000;stroke-linecap:round;stroke-linejoin:round"></line><line x1="487.51" y1="62.3" x2="495.88" y2="69.04" style="fill:none;stroke:#000;stroke-linecap:round;stroke-linejoin:round"></line><line x1="450.37" y1="67.75" x2="456.89" y2="78.53" style="fill:none;stroke:#000;stroke-linecap:round;stroke-linejoin:round"></line><path d="M442,77.66s2,3.17,3.91,3.62,5.12.82,5.12.82" style="fill:none;stroke:#000;stroke-linecap:round;stroke-linejoin:round"></path><line x1="441.69" y1="91.99" x2="450.21" y2="89.31" style="fill:none;stroke:#000;stroke-linecap:round;stroke-linejoin:round"></line><line x1="455.51" y1="91.81" x2="450.37" y2="98.63" style="fill:none;stroke:#000;stroke-linecap:round;stroke-linejoin:round"></line><polygon points="485.5 70.22 483.69 74.38 486.1 78.22 481.59 77.79 478.68 81.27 477.69 76.84 473.49 75.15 477.39 72.84 477.7 68.33 481.1 71.32 485.5 70.22" style="fill:none;stroke:#000;stroke-linecap:round;stroke-linejoin:round"></polygon><polygon points="504.04 88.36 505.55 89.94 507.69 89.59 506.67 91.5 507.66 93.44 505.52 93.05 503.99 94.59 503.69 92.44 501.75 91.46 503.71 90.51 504.04 88.36" style="fill:none;stroke:#000;stroke-linecap:round;stroke-linejoin:round"></polygon><polygon points="496.07 58.63 497.26 59.87 498.96 59.6 498.14 61.11 498.93 62.64 497.24 62.33 496.03 63.55 495.8 61.85 494.27 61.08 495.81 60.33 496.07 58.63" style="fill:none;stroke:#000;stroke-linecap:round;stroke-linejoin:round"></polygon><polygon points="449.33 72.17 450.88 73.79 453.09 73.43 452.03 75.41 453.06 77.4 450.85 77 449.27 78.59 448.97 76.37 446.97 75.36 448.99 74.39 449.33 72.17" style="fill:none;stroke:#000;stroke-linecap:round;stroke-linejoin:round"></polygon><polygon points="455.21 97.45 455.96 98.25 457.05 98.07 456.53 99.04 457.03 100.02 455.95 99.82 455.18 100.6 455.03 99.51 454.05 99.02 455.04 98.54 455.21 97.45" style="fill:none;stroke:#000;stroke-linecap:round;stroke-linejoin:round"></polygon><polygon points="463.31 73.6 464.13 74.46 465.3 74.27 464.74 75.31 465.28 76.36 464.12 76.15 463.28 76.99 463.12 75.82 462.07 75.29 463.13 74.77 463.31 73.6" style="fill:none;stroke:#000;stroke-linecap:round;stroke-linejoin:round"></polygon><polygon points="479.65 88.03 481.17 89.61 483.34 89.26 482.3 91.2 483.3 93.15 481.14 92.76 479.59 94.32 479.3 92.14 477.33 91.15 479.31 90.2 479.65 88.03" style="fill:none;stroke:#000;stroke-linecap:round;stroke-linejoin:round"></polygon><polygon points="489.36 85.8 490.67 87.17 492.53 86.86 491.64 88.53 492.5 90.21 490.64 89.88 489.31 91.22 489.05 89.34 487.37 88.49 489.07 87.67 489.36 85.8" style="fill:none;stroke:#000;stroke-linecap:round;stroke-linejoin:round"></polygon><polygon points="514.83 75.22 515.59 76.01 516.67 75.84 516.15 76.81 516.65 77.78 515.57 77.59 514.8 78.37 514.65 77.28 513.67 76.78 514.66 76.31 514.83 75.22" style="fill:none;stroke:#000;stroke-linecap:round;stroke-linejoin:round"></polygon><path d="M443.32,95,459,142.58a2.5,2.5,0,0,0,2.8,1.68h0a2.49,2.49,0,0,0,2-3.21l-12.26-39" style="fill:none;stroke:#000;stroke-linecap:round;stroke-linejoin:round"></path></g><g style="opacity:0.2"><path d="M86.75,284.7S74.24,271.6,65,269,42.65,279,42.4,282.34s4.91,24.37,11.13,29.19,16.14,0,23.42,1,11.56,9.05,20.37,13.21,20.51-4.6,24.34-9.72,6.63-7.78,7.57-9.92-4.45-17.38-10.65-19.79S89,284,86.75,284.7Z" style="fill:none;stroke:#000;stroke-linecap:round;stroke-linejoin:round"></path><path d="M92.11,303.71s8.22-7.34,14.58-8,10.47,8.06,10.47,8.06-4.82,6.22-11,6.22S92.11,303.71,92.11,303.71Z" style="fill:none;stroke:#000;stroke-linecap:round;stroke-linejoin:round"></path><path d="M75.67,299.83s-2.35-11.31-8.55-13.72a23.89,23.89,0,0,0-12-1.27s-.08,8.91,5.63,11.87S75.67,299.83,75.67,299.83Z" style="fill:none;stroke:#000;stroke-linecap:round;stroke-linejoin:round"></path><path d="M86.75,284.7s-2.93-8-3-12.53,2.23-5.56,2.52-4.11.78-5.28,5.44-8.45,3,3.94,3,3.94,5.49-7.41,9.78-5.53-3.39,9.71-3.39,9.71,13.94-2,13.11,2.27-3.42,4.89-3.42,4.89,12.86-.55,10.12,3.15S104,280.89,104,280.89s4.55.92,2.11,2.3S91.78,282.66,86.75,284.7Z" style="fill:none;stroke:#000;stroke-linecap:round;stroke-linejoin:round"></path><path d="M100.32,278.2a23.89,23.89,0,0,1,2.83-.62" style="fill:none;stroke:#000;stroke-linecap:round;stroke-linejoin:round"></path><path d="M94,270.92c-3.06,3.61-7.26,13.78-7.26,13.78a55.27,55.27,0,0,1,10.45-5.46" style="fill:none;stroke:#000;stroke-linecap:round;stroke-linejoin:round"></path><line x1="59.59" y1="300.85" x2="54.91" y2="307.8" style="fill:none;stroke:#000;stroke-linecap:round;stroke-linejoin:round"></line><line x1="68.55" y1="301.97" x2="63.34" y2="310.83" style="fill:none;stroke:#000;stroke-linecap:round;stroke-linejoin:round"></line><line x1="96.15" y1="308.95" x2="91.35" y2="317.58" style="fill:none;stroke:#000;stroke-linecap:round;stroke-linejoin:round"></line><line x1="106.96" y1="313.33" x2="105.59" y2="325.66" style="fill:none;stroke:#000;stroke-linecap:round;stroke-linejoin:round"></line><line x1="116.38" y1="309.08" x2="122.23" y2="312.76" style="fill:none;stroke:#000;stroke-linecap:round;stroke-linejoin:round"></line><line x1="119.15" y1="301.6" x2="124.73" y2="300.06" style="fill:none;stroke:#000;stroke-linecap:round;stroke-linejoin:round"></line><line x1="118.1" y1="289.29" x2="113.6" y2="295.6" style="fill:none;stroke:#000;stroke-linecap:round;stroke-linejoin:round"></line><line x1="99.31" y1="286.47" x2="102.65" y2="296.67" style="fill:none;stroke:#000;stroke-linecap:round;stroke-linejoin:round"></line><line x1="65.19" y1="270.81" x2="64.78" y2="283.4" style="fill:none;stroke:#000;stroke-linecap:round;stroke-linejoin:round"></line><path d="M52.8,274.58s0,3.77,1.31,5.17S58,283.22,58,283.22" style="fill:none;stroke:#000;stroke-linecap:round;stroke-linejoin:round"></path><line x1="44.71" y1="286.41" x2="53.32" y2="288.8" style="fill:none;stroke:#000;stroke-linecap:round;stroke-linejoin:round"></line><line x1="56.4" y1="293.78" x2="48.37" y2="296.7" style="fill:none;stroke:#000;stroke-linecap:round;stroke-linejoin:round"></line><polygon points="93.3 292.01 89.53 294.52 89.45 299.05 85.9 296.23 81.57 297.56 83.15 293.32 80.55 289.61 85.08 289.8 87.8 286.18 89.02 290.54 93.3 292.01" style="fill:none;stroke:#000;stroke-linecap:round;stroke-linejoin:round"></polygon><polygon points="98.98 317.33 99.38 319.47 101.37 320.34 99.46 321.39 99.25 323.55 97.66 322.06 95.53 322.52 96.46 320.56 95.37 318.68 97.53 318.95 98.98 317.33" style="fill:none;stroke:#000;stroke-linecap:round;stroke-linejoin:round"></polygon><polygon points="108.48 288.06 108.81 289.74 110.38 290.43 108.87 291.26 108.7 292.97 107.45 291.79 105.77 292.15 106.5 290.6 105.64 289.12 107.34 289.33 108.48 288.06" style="fill:none;stroke:#000;stroke-linecap:round;stroke-linejoin:round"></polygon><polygon points="61.91 273.95 62.33 276.15 64.38 277.06 62.41 278.13 62.19 280.36 60.55 278.83 58.36 279.3 59.32 277.27 58.19 275.34 60.42 275.62 61.91 273.95" style="fill:none;stroke:#000;stroke-linecap:round;stroke-linejoin:round"></polygon><polygon points="53.07 298.35 53.27 299.43 54.28 299.88 53.31 300.4 53.2 301.5 52.4 300.74 51.33 300.98 51.8 299.98 51.24 299.03 52.34 299.17 53.07 298.35" style="fill:none;stroke:#000;stroke-linecap:round;stroke-linejoin:round"></polygon><polygon points="72.86 282.77 73.08 283.93 74.16 284.41 73.12 284.98 73 286.15 72.14 285.34 70.98 285.59 71.49 284.52 70.89 283.5 72.07 283.65 72.86 282.77" style="fill:none;stroke:#000;stroke-linecap:round;stroke-linejoin:round"></polygon><polygon points="78.7 303.76 79.11 305.92 81.12 306.81 79.19 307.86 78.97 310.05 77.37 308.54 75.22 309.01 76.16 307.02 75.06 305.12 77.24 305.4 78.7 303.76" style="fill:none;stroke:#000;stroke-linecap:round;stroke-linejoin:round"></polygon><polygon points="88.06 307.18 88.41 309.04 90.14 309.8 88.48 310.71 88.29 312.59 86.91 311.3 85.06 311.7 85.87 309.99 84.92 308.35 86.8 308.59 88.06 307.18" style="fill:none;stroke:#000;stroke-linecap:round;stroke-linejoin:round"></polygon><polygon points="115.18 312.18 115.38 313.26 116.39 313.7 115.42 314.23 115.31 315.32 114.51 314.57 113.44 314.8 113.91 313.81 113.36 312.86 114.44 313 115.18 312.18" style="fill:none;stroke:#000;stroke-linecap:round;stroke-linejoin:round"></polygon><path d="M44.46,289.78,31.65,338.25a2.48,2.48,0,0,0,1.43,2.93h0a2.48,2.48,0,0,0,3.38-1.62L47.4,300.21" style="fill:none;stroke:#000;stroke-linecap:round;stroke-linejoin:round"></path></g><g style="opacity:0.2"><path d="M512,310.4S502.12,300,494.78,298s-17.72,7.88-17.92,10.55,3.89,19.34,8.82,23.16,12.81,0,18.58.8,9.18,7.19,16.16,10.49,16.28-3.65,19.31-7.71,5.26-6.17,6-7.87-3.52-13.79-8.44-15.7S513.83,309.81,512,310.4Z" style="fill:none;stroke:#000;stroke-linecap:round;stroke-linejoin:round"></path><path d="M516.29,325.48s6.52-5.81,11.57-6.32,8.3,6.4,8.3,6.4-3.82,4.93-8.72,4.93S516.29,325.48,516.29,325.48Z" style="fill:none;stroke:#000;stroke-linecap:round;stroke-linejoin:round"></path><path d="M503.25,322.4s-1.87-9-6.79-10.87a19,19,0,0,0-9.52-1s-.06,7.07,4.46,9.42S503.25,322.4,503.25,322.4Z" style="fill:none;stroke:#000;stroke-linecap:round;stroke-linejoin:round"></path><path d="M512,310.4s-2.32-6.36-2.42-9.93,1.77-4.41,2-3.26.61-4.19,4.31-6.7,2.4,3.12,2.4,3.12,4.36-5.88,7.76-4.39-2.68,7.7-2.68,7.7,11.06-1.56,10.39,1.8-2.71,3.88-2.71,3.88,10.2-.43,8,2.5-13.44,2.26-13.44,2.26,3.61.74,1.67,1.83S516,308.79,512,310.4Z" style="fill:none;stroke:#000;stroke-linecap:round;stroke-linejoin:round"></path><path d="M522.8,305.25a18.11,18.11,0,0,1,2.25-.49" style="fill:none;stroke:#000;stroke-linecap:round;stroke-linejoin:round"></path><path d="M517.8,299.47c-2.43,2.87-5.76,10.93-5.76,10.93a44.25,44.25,0,0,1,8.28-4.33" style="fill:none;stroke:#000;stroke-linecap:round;stroke-linejoin:round"></path><line x1="490.49" y1="323.22" x2="486.78" y2="328.73" style="fill:none;stroke:#000;stroke-linecap:round;stroke-linejoin:round"></line><line x1="497.6" y1="324.1" x2="493.47" y2="331.13" style="fill:none;stroke:#000;stroke-linecap:round;stroke-linejoin:round"></line><line x1="519.5" y1="329.64" x2="515.69" y2="336.49" style="fill:none;stroke:#000;stroke-linecap:round;stroke-linejoin:round"></line><line x1="528.07" y1="333.12" x2="526.98" y2="342.9" style="fill:none;stroke:#000;stroke-linecap:round;stroke-linejoin:round"></line><line x1="535.54" y1="329.74" x2="540.18" y2="332.67" style="fill:none;stroke:#000;stroke-linecap:round;stroke-linejoin:round"></line><line x1="537.74" y1="323.81" x2="542.16" y2="322.59" style="fill:none;stroke:#000;stroke-linecap:round;stroke-linejoin:round"></line><line x1="536.91" y1="314.05" x2="533.34" y2="319.05" style="fill:none;stroke:#000;stroke-linecap:round;stroke-linejoin:round"></line><line x1="522" y1="311.81" x2="524.65" y2="319.91" style="fill:none;stroke:#000;stroke-linecap:round;stroke-linejoin:round"></line><line x1="494.93" y1="299.39" x2="494.61" y2="309.38" style="fill:none;stroke:#000;stroke-linecap:round;stroke-linejoin:round"></line><path d="M485.11,302.38s0,3,1,4.1,3.05,2.76,3.05,2.76" style="fill:none;stroke:#000;stroke-linecap:round;stroke-linejoin:round"></path><line x1="478.69" y1="311.76" x2="485.52" y2="313.66" style="fill:none;stroke:#000;stroke-linecap:round;stroke-linejoin:round"></line><line x1="487.96" y1="317.61" x2="481.6" y2="319.93" style="fill:none;stroke:#000;stroke-linecap:round;stroke-linejoin:round"></line><polygon points="517.23 316.21 514.24 318.2 514.18 321.79 511.36 319.56 507.93 320.61 509.18 317.24 507.12 314.3 510.71 314.45 512.87 311.58 513.84 315.04 517.23 316.21" style="fill:none;stroke:#000;stroke-linecap:round;stroke-linejoin:round"></polygon><polygon points="521.74 336.29 522.06 337.98 523.64 338.68 522.12 339.51 521.95 341.23 520.69 340.04 519 340.41 519.74 338.85 518.87 337.36 520.59 337.57 521.74 336.29" style="fill:none;stroke:#000;stroke-linecap:round;stroke-linejoin:round"></polygon><polygon points="529.28 313.07 529.53 314.41 530.78 314.95 529.58 315.61 529.45 316.96 528.46 316.03 527.12 316.32 527.71 315.09 527.02 313.91 528.37 314.08 529.28 313.07" style="fill:none;stroke:#000;stroke-linecap:round;stroke-linejoin:round"></polygon><polygon points="492.33 301.88 492.67 303.63 494.29 304.34 492.73 305.2 492.55 306.97 491.26 305.75 489.52 306.12 490.28 304.51 489.38 302.98 491.15 303.2 492.33 301.88" style="fill:none;stroke:#000;stroke-linecap:round;stroke-linejoin:round"></polygon><polygon points="485.32 321.24 485.48 322.09 486.28 322.44 485.51 322.86 485.43 323.73 484.79 323.13 483.94 323.32 484.31 322.53 483.87 321.78 484.74 321.89 485.32 321.24" style="fill:none;stroke:#000;stroke-linecap:round;stroke-linejoin:round"></polygon><polygon points="501.02 308.87 501.19 309.8 502.05 310.17 501.23 310.63 501.13 311.56 500.45 310.92 499.53 311.11 499.93 310.26 499.46 309.45 500.39 309.57 501.02 308.87" style="fill:none;stroke:#000;stroke-linecap:round;stroke-linejoin:round"></polygon><polygon points="505.65 325.52 505.98 327.24 507.57 327.94 506.05 328.78 505.87 330.51 504.6 329.32 502.89 329.69 503.64 328.11 502.76 326.6 504.49 326.82 505.65 325.52" style="fill:none;stroke:#000;stroke-linecap:round;stroke-linejoin:round"></polygon><polygon points="513.07 328.24 513.35 329.71 514.73 330.32 513.41 331.04 513.26 332.53 512.17 331.5 510.7 331.82 511.34 330.46 510.59 329.17 512.07 329.36 513.07 328.24" style="fill:none;stroke:#000;stroke-linecap:round;stroke-linejoin:round"></polygon><polygon points="534.59 332.2 534.75 333.06 535.55 333.41 534.78 333.83 534.7 334.7 534.06 334.1 533.21 334.28 533.58 333.5 533.14 332.74 534.01 332.85 534.59 332.2" style="fill:none;stroke:#000;stroke-linecap:round;stroke-linejoin:round"></polygon><path d="M478.49,314.43l-10.16,38.46a2,2,0,0,0,1.13,2.32h0a2,2,0,0,0,2.69-1.29l8.67-31.21" style="fill:none;stroke:#000;stroke-linecap:round;stroke-linejoin:round"></path></g><polygon points="286 314.83 293.69 330.41 310.89 332.91 298.45 345.04 301.38 362.17 286 354.09 270.62 362.17 273.55 345.04 261.11 332.91 278.31 330.41 286 314.83" style="fill:none;stroke:#000;stroke-linecap:round;stroke-linejoin:round;opacity:0.2"></polygon><polygon points="64 57 71.4 61.49 79.3 57.94 77.31 66.37 83.13 72.78 74.5 73.5 70.2 81.01 66.85 73.03 58.38 71.26 64.94 65.61 64 57" style="fill:none;stroke:#000;stroke-linecap:round;stroke-linejoin:round;opacity:0.2"></polygon><polygon points="686 250 680.03 255.91 681.51 264.18 674.05 260.32 666.64 264.29 668 256 661.94 250.18 670.24 248.91 673.9 241.35 677.68 248.85 686 250" style="fill:none;stroke:#000;stroke-linecap:round;stroke-linejoin:round;opacity:0.2"></polygon><path d="M57.86,389.06a34.48,34.48,0,0,1,46.27-15.4,27.58,27.58,0,0,1,12.31,37,22.07,22.07,0,0,1-29.61,9.86A17.65,17.65,0,0,1,79,396.84a14.12,14.12,0,0,1,19-6.31,11.3,11.3,0,0,1,5,15.16,9,9,0,0,1-12.13,4,7.22,7.22,0,0,1-3.23-9.7,5.78,5.78,0,0,1,7.76-2.59,4.63,4.63,0,0,1,2.07,6.21" style="fill:none;stroke:#000;stroke-linecap:round;stroke-linejoin:round;opacity:0.2"></path><path d="M391,37a30.8,30.8,0,0,1-7,43,24.64,24.64,0,0,1-34.4-5.6,19.71,19.71,0,0,1,4.48-27.52,15.78,15.78,0,0,1,22,3.58,12.63,12.63,0,0,1-2.87,17.62,10.1,10.1,0,0,1-14.09-2.3A8.07,8.07,0,0,1,361,54.51,6.46,6.46,0,0,1,370,56a5.16,5.16,0,0,1-1.17,7.21,4.12,4.12,0,0,1-5.77-.94" style="fill:none;stroke:#000;stroke-linecap:round;stroke-linejoin:round;opacity:0.2"></path><path d="M132.81,39.6A13.45,13.45,0,0,1,128,21.19a10.75,10.75,0,0,1,14.72-3.84,8.6,8.6,0,0,1,3.08,11.78,6.89,6.89,0,0,1-9.42,2.46,5.51,5.51,0,0,1-2-7.54,4.41,4.41,0,0,1,6-1.58,3.54,3.54,0,0,1,1.26,4.83,2.83,2.83,0,0,1-3.86,1,2.26,2.26,0,0,1-.81-3.09,1.81,1.81,0,0,1,2.47-.65" style="fill:none;stroke:#000;stroke-linecap:round;stroke-linejoin:round;opacity:0.2"></path><path d="M684.7,212a15.63,15.63,0,0,1,7.82-20.66,12.49,12.49,0,0,1,16.53,6.26,10,10,0,0,1-5,13.22,8,8,0,0,1-10.58-4,6.41,6.41,0,0,1,3.2-8.47,5.12,5.12,0,0,1,6.77,2.57,4.09,4.09,0,0,1-2.05,5.41,3.27,3.27,0,0,1-4.33-1.64,2.61,2.61,0,0,1,1.31-3.46,2.08,2.08,0,0,1,2.77,1.05" style="fill:none;stroke:#000;stroke-linecap:round;stroke-linejoin:round;opacity:0.2"></path><path d="M686.63,367.6a38.61,38.61,0,0,1,19.74,50.9,30.89,30.89,0,0,1-40.72,15.79A24.7,24.7,0,0,1,653,401.72a19.77,19.77,0,0,1,26.06-10.11,15.81,15.81,0,0,1,8.08,20.85,12.64,12.64,0,0,1-16.67,6.47,10.13,10.13,0,0,1-5.18-13.35A8.11,8.11,0,0,1,676,401.44,6.48,6.48,0,0,1,679.3,410a5.18,5.18,0,0,1-6.83,2.65" style="fill:none;stroke:#000;stroke-linecap:round;stroke-linejoin:round;opacity:0.2"></path><path d="M317.4,412.15a20.1,20.1,0,0,1-18,22,16.08,16.08,0,0,1-17.6-14.4,12.86,12.86,0,0,1,11.52-14.08,10.29,10.29,0,0,1,11.26,9.22,8.24,8.24,0,0,1-7.37,9A6.59,6.59,0,0,1,290,418a5.27,5.27,0,0,1,4.72-5.77,4.22,4.22,0,0,1,4.61,3.78,3.37,3.37,0,0,1-3,3.69,2.69,2.69,0,0,1-2.95-2.42" style="fill:none;stroke:#000;stroke-linecap:round;stroke-linejoin:round;opacity:0.2"></path><path d="M488.26,391.9a24.7,24.7,0,0,1,24.39-25,19.76,19.76,0,0,1,20,19.51,15.8,15.8,0,0,1-15.61,16,12.64,12.64,0,0,1-12.8-12.48,10.11,10.11,0,0,1,10-10.24,8.1,8.1,0,0,1,8.2,8,6.48,6.48,0,0,1-6.4,6.55,5.17,5.17,0,0,1-5.24-5.11,4.14,4.14,0,0,1,4.09-4.2,3.33,3.33,0,0,1,3.36,3.28" style="fill:none;stroke:#000;stroke-linecap:round;stroke-linejoin:round;opacity:0.2"></path></g><g id="freepik--character-3--inject-143"><ellipse cx="604.5" cy="467" rx="66.5" ry="17" style="opacity:0.1"></ellipse><path d="M668.5,47c-3.55-.69-6.94,4.86-9.34,7.27-4.67,4.68-10.22,14.34-10.22,14.34s-3.51-3.51-7.89,5c-2.55,4.95-2.82,7.4-2.71,8.36-.78-1-4.05-.18-5.17,6.56-.68,4.17-.65,11.11-.51,16.07-3.2,11.62-2.66,18.73-2.66,18.73l1.17,4.1,2.62-14.92s9.93-8.79,12-13.17c1.89-4.07-2-1.86-2.55-1.51,1.09-.66,14.64-8.91,17.45-12.84,1.87-2.63-1.26-3.33-3.38-2.83,3.32-7.65,22.51-24.53,13.43-33.83A4.37,4.37,0,0,0,668.5,47Z" style="fill:#FF0066;stroke:#263238;stroke-linecap:round;stroke-linejoin:round"></path><path d="M704.7,73a3.48,3.48,0,0,0-1.2-.56,6.85,6.85,0,0,0-3.62.43,83.14,83.14,0,0,0-22.25,10.88c-1.11-2.43-4.75-1.83-7.07-.5a27.13,27.13,0,0,0-8.41,7.62c-2.27-1.84-5.34,1-6.88,3.44-6.35,10.13-17.64,22.53-19.39,34.41a29,29,0,0,1,18.3-15.9c3.14-.9,6.92-1.62,8.27-4.59a2.83,2.83,0,0,0-2.86-.85,115.28,115.28,0,0,0,19.9-3.12c1-.26,2.16-.65,2.49-1.64.58-1.78-1.92-2.86-3.78-3a75.87,75.87,0,0,0,24.18-15.39c1.77-1.67,3.52-3.54,4.07-5.9A5.29,5.29,0,0,0,704.7,73Z" style="fill:#263238;stroke:#263238;stroke-linecap:round;stroke-linejoin:round"></path><path d="M726.32,113.86c-1.81-2.61-9.77-2.86-12-3.22-6.53-1.08-17.61,0-17.61,0s.81-4.9-8.64-3.52c-5.51.81-7.66,2-8.37,2.66.34-1.2-2.22-3.39-8.35-.37-3.79,1.86-9.41,5.93-13.36,8.94-11.31,4.16-16.78,8.74-16.78,8.74l-2.65,3.34,13.65-6.56s12.93,3,17.68,2.06c4.41-.83.36-2.68-.26-3,1.18.5,15.77,6.72,20.6,6.71,5,0-.42-5.1-.42-5.1s15.37.85,22.64,0c3.76-.47,12.25-4.84,13.9-8.41A2.2,2.2,0,0,0,726.32,113.86Z" style="fill:#FF0066;stroke:#263238;stroke-linecap:round;stroke-linejoin:round"></path><path d="M612,41a3.69,3.69,0,0,1,1.25.45,6.87,6.87,0,0,1,2.27,2.85,82.93,82.93,0,0,1,8.2,23.37c2.5-.95,4.67,2,5.38,4.61a27,27,0,0,1,.64,11.32c2.91.29,3.13,4.44,2.49,7.29C629.61,102.6,629,119.35,621.85,129A29.06,29.06,0,0,0,620,104.87c-1.61-2.85-3.79-6-2.66-9.08A2.82,2.82,0,0,1,620,97.2,115.34,115.34,0,0,1,608,81c-.54-.89-1.09-2-.62-2.91.83-1.68,3.36-.69,4.82.48a75.66,75.66,0,0,1-6.41-27.94c-.08-2.42,0-5,1.25-7.05A5.29,5.29,0,0,1,612,41Z" style="fill:#FF0066;stroke:#263238;stroke-linecap:round;stroke-linejoin:round"></path><path d="M569.7,56.28c3.12-.59,9,4.81,10.77,6.09,5.4,3.82,12.51,12.4,12.51,12.4s2.86-4,8.62,3.56c3.36,4.45,4,6.82,4.09,7.78.6-1.1,4-.86,6.21,5.59,1.38,4,2.53,10.84,3.23,15.75,5.13,10.9,5.81,18,5.81,18l-.46,4.23-5.11-14.26s-11.28-7-14-10.94c-2.56-3.69,1.63-2.17,2.26-1.92-1.19-.47-16-6.29-19.38-9.69s3.88-3.33,3.88-3.33S576.56,79.36,572,73.61c-2.35-3-5.32-12-4-15.76A2.2,2.2,0,0,1,569.7,56.28Z" style="fill:#263238;stroke:#263238;stroke-linecap:round;stroke-linejoin:round"></path><path d="M556.62,83.29c2.58-1.3,9,1.94,10.94,2.6,5.68,2,14.05,7.67,14.05,7.67s1.48-4.26,8.43.94c4.05,3,5.24,4.93,5.53,5.75.25-1.11,3.25-1.75,6.83,3.32,2.22,3.13,5,8.82,6.8,12.93,7.23,8.23,9.62,14.26,9.62,14.26l.66,3.81-8.06-11.15s-11.61-3.24-15-6c-3.16-2.57.88-2.3,1.49-2.25-1.15-.1-15.51-1.46-19.36-3.56-4-2.2,2.54-3.89,2.54-3.89s-12.64-6-18.06-9.86c-2.8-2-7.68-9.18-7.46-12.75A2,2,0,0,1,556.62,83.29Z" style="fill:#FF0066;stroke:#263238;stroke-linecap:round;stroke-linejoin:round"></path><path d="M650.11,282.92s5.83,34.94,3.18,53.2-13.23,39.71-13.76,41.82.53,30.44-1.59,42.09-11.12,31.5-11.65,35.2-.32,4.22,1.53,6.6,8.3,9.17,9.65,18.13c.74,4.91-7.21,6-12.24-.38s-4.82-5.07-8-9-2.05-6.57-1-11.07,0-13.24,0-22.5-1.58-33.88-1.58-42.09,4.23-33.35,4.23-33.35-1.85-27.26-3.7-36-7.68-16.41-2.12-23S634.76,287.42,639,284,648.79,281.86,650.11,282.92Z" style="fill:#fff;stroke:#263238;stroke-linecap:round;stroke-linejoin:round"></path><path d="M637.47,480a26.78,26.78,0,0,0-2.72-8.19c-2.16.31-5.28.86-6.46,1.6a37.47,37.47,0,0,1-4,2.11s-6.35-8.23-6.59-8.94c-.16-.49-1.23-3.57-1.87-5.43-.87,3.55-1.37,6,1.4,9.43,3.18,4,3,2.69,8,9S638.21,484.87,637.47,480Z" style="fill:#263238;stroke:#263238;stroke-linecap:round;stroke-linejoin:round"></path><path d="M616.23,172.81l-2.64,10.06s-7.94,1.59-12.18,1.59a65.81,65.81,0,0,0-23.55,4.5c-4.5,1.85-29.65-1.85-29.65-1.85l-5.29,15.61s14,1.59,25.14,3.71a78.51,78.51,0,0,0,21.71.79l-1.59,3.44s-7.68,5-6.35,13.5,9.52,11.65,10.58,11.65S594,241.9,594.27,249s-4.5,14-7.15,20.12-5.56,14.56-5.56,14.56,19.32,12.7,24.88,17.47,9,7.94,9,7.94a72,72,0,0,0,12.71-10.33c6.88-6.88,15.61-12.44,18-13.49a18.25,18.25,0,0,0,4-2.39s-2.11-7.14-5.55-19.05-4.5-21.44-4.24-22.5.79-4.5,7.15-17.47,12.7-28.06,10.58-34.41-16.67-5.56-22.23-5.56h-5.56s-.79.8-.26-3.44l.53-4.23,2.91-11.39Z" style="fill:#fff;stroke:#263238;stroke-linecap:round;stroke-linejoin:round"></path><path d="M589.77,207.22s3.21-4.48,3.21-9.37" style="fill:none;stroke:#263238;stroke-linecap:round;stroke-linejoin:round"></path><polyline points="630.43 169.2 613.59 182.87 614.8 176.69 629.13 169.2" style="fill:#263238"></polyline><path d="M628.41,240.84c7.15-1.33,17.21-10.81,16.15-18s-11.92-17-20.39-14.86-13,12.7-13,12.7-5.56-11.11-9-13-15.36,4-15.36,4h0c-2.14,1.89-6,6.24-5,12.44,1.32,8.47,9.52,11.65,10.58,11.65.24,0,.44.31.63.85l.43-.06S621.26,242.16,628.41,240.84Z" style="fill:#263238;stroke:#263238;stroke-linecap:round;stroke-linejoin:round"></path><path d="M621.33,129.48s-12.82,5.79-14.89,12.41A44.48,44.48,0,0,0,604,157.6c0,5.79,6.62,18.61,9.93,20.27s18.61-9.93,21.09-12.82,1.24-19.85-4.55-29S621.33,129.48,621.33,129.48Z" style="fill:#fff;stroke:#263238;stroke-linecap:round;stroke-linejoin:round"></path><path d="M612.21,162.81s6,3.5,10-1.39" style="fill:none;stroke:#263238;stroke-linecap:round;stroke-linejoin:round"></path><path d="M625.72,151.05c0,1-.58,1.75-1.29,1.75s-1.28-.78-1.28-1.75.58-1.74,1.28-1.74S625.72,150.09,625.72,151.05Z" style="fill:#263238"></path><path d="M613.25,148.72c0,1-.57,1.75-1.28,1.75s-1.28-.78-1.28-1.75S611.27,147,612,147,613.25,147.76,613.25,148.72Z" style="fill:#263238"></path><path d="M609.64,144.18s3.26-3.26,5.83.23" style="fill:none;stroke:#263238;stroke-linecap:round;stroke-linejoin:round"></path><path d="M621.52,144.41s6.29-.7,7.22,5.59" style="fill:none;stroke:#263238;stroke-linecap:round;stroke-linejoin:round"></path><path d="M616.17,148.14s.69,1.17-1.17,3.26-5.12,1.86-4.42,3.26,4.42,2.1,4.42,2.1" style="fill:none;stroke:#263238;stroke-linecap:round;stroke-linejoin:round"></path><path d="M566.09,236.37s-2.48-3.72-2.89-5.78-1.24-6.4-2.27-4.54-1.24,2.27-.62,4.33,1.65,6.19,1.86,7S566.09,236.37,566.09,236.37Z" style="fill:#fff;stroke:#263238;stroke-linecap:round;stroke-linejoin:round"></path><path d="M564.09,235.28l-4.79-5.39a4.39,4.39,0,0,0-3.92-1.44c-3.59.52-9.9,1.57-8.76,2.33,1.59,1.06,9.8,1.59,10.59,1.85s5,5,6.09,5S564.09,235.28,564.09,235.28Z" style="fill:#fff;stroke:#263238;stroke-linecap:round;stroke-linejoin:round"></path><path d="M644.82,203,630,225.49s-34.41,8.47-42.35,10a159.33,159.33,0,0,1-19.32,2.12s-13-7.14-14-7.67-7.15-.8-9.53.26,1.86,1.45,3.44,1.59a6.31,6.31,0,0,1,5.56,4.23s8.2,6.89,10.59,7.68,12.17,1.32,13.76,1.32,41,0,47.91-1.59,11.64-2.64,15.35-5.29S656.73,214.1,660.44,207s3.7-14.29,1.32-18.26S644.29,185,644.29,185" style="fill:#fff;stroke:#263238;stroke-linecap:round;stroke-linejoin:round"></path><path d="M564.23,243.18c-2.7.06-13.9-9.47-13.9-9.47s-7.44-.5-8-1.94,8.83.2,8.83.2l3.15,1.51,2.89,1.24" style="fill:#fff;stroke:#263238;stroke-linecap:round;stroke-linejoin:round"></path><path d="M650.11,282.92s-.88-3-2.42-8.27C640.63,279.15,629,285,616,285.31a42.93,42.93,0,0,1-30.73-11.57c-2,5-3.68,10-3.68,10s19.32,12.7,24.88,17.47,9,7.94,9,7.94a72,72,0,0,0,12.71-10.33c6.88-6.88,15.61-12.44,18-13.49A18.25,18.25,0,0,0,650.11,282.92Z" style="fill:#263238;stroke:#263238;stroke-linecap:round;stroke-linejoin:round"></path><path d="M571.5,434.06s0,12.7,4.5,16.67,6.88,1.06,7.94-4.76-1.32-15.62-1.32-15.62L571,431.94Z" style="fill:#fff;stroke:#263238;stroke-linecap:round;stroke-linejoin:round"></path><path d="M584,438.6c-1.64,1.93-4.12,4-6.94,3.4a10.16,10.16,0,0,1-5.19-2.5c.48,4,1.59,9,4.13,11.23,4.5,4,6.88,1.06,7.94-4.76A28.24,28.24,0,0,0,584,438.6Z" style="fill:#263238;stroke:#263238;stroke-linecap:round;stroke-linejoin:round"></path><path d="M563.3,401.77s-2.12,5.82-6.35,8.73-2.12,8.47,0,10.32,7.14,2.12,7.14,6.89,5.3,7.94,7.94,7.94,9-1.59,11.91,2.38,7.94,7.67,11.38,3.7,4.77-3.44,10.33-1.85,9.26.79,10.85-4.5,1.85-4.76,6.35-6.09a7,7,0,0,0,3.44-10.85,34.88,34.88,0,0,1-3.7-5.82s-5.83,7.41-21.71,2.64-35.46-15.61-35.46-15.61Z" style="fill:#fff;stroke:#263238;stroke-linecap:round;stroke-linejoin:round"></path><path d="M562,400.44a5.78,5.78,0,0,0-2.38,5.56c.53,3.71,6.88,4.77,6.88,7.94s-4.23,11.65,1.86,13,14,3.18,14.29,4.77,6.88,5.82,10.32,3.17,7.94-6.09,9.8-4.5,9.79,3.18,11.91-2.12,1.06-5,5.82-7.41,4.76-2.64,5-3.7,1.06-3.44-.53-8.47a25.53,25.53,0,0,0-3.44-7.41s-13.77,10.05-28.32,4.23-27-9.26-27.79-9.26S562,400.44,562,400.44Z" style="fill:#FF0066;stroke:#263238;stroke-linecap:round;stroke-linejoin:round"></path><path d="M566.21,383.77s-2.12,5.82-6.35,8.73-2.12,8.47,0,10.32,7.14,2.12,7.14,6.89,5.3,7.94,7.94,7.94,9-1.59,11.91,2.38,7.95,7.68,11.39,3.7,4.76-3.44,10.32-1.85,9.26.8,10.85-4.5,1.85-4.76,6.35-6.09a7,7,0,0,0,3.44-10.85,34.88,34.88,0,0,1-3.7-5.82s-5.82,7.41-21.71,2.65-35.46-15.62-35.46-15.62Z" style="fill:#fff;stroke:#263238;stroke-linecap:round;stroke-linejoin:round"></path><path d="M567.27,375s-4.77,3.71-3.44,7.15,4,4.23,2.91,7.68-7.41,9.26-1.59,11.64,10.59-1.59,11.38,2.65,6.35,11.64,10.59,9.53,10.06-5,11.65-2.65,6.35,9,9.52,3.18,8.74-6.09,11.12-4.24,5.56-1.59,5.82-5.29a6.31,6.31,0,0,1,5.83-6.09c2.91-.26,4.76-8.73,1.58-11.65s-2.11-6.35-2.38-9.26-.53-4.24-2.64-5.56-10.33-1.32-16.68.27-16.67,1.05-22.76-1.06-9-3.18-11.12-1.86S567.27,375,567.27,375Z" style="fill:#FF0066;stroke:#263238;stroke-linecap:round;stroke-linejoin:round"></path><path d="M577.06,353.33s-5.56,1.59-7.94,4.76,4.24,5.3.79,9.8-8.2,5.29-6.35,8.2,8.47,2.65,8.47,6.35-.53,8.74,4,9.53,9-2.38,10.06-.26,7.15,9.53,10.85,6.88,8.21-6.62,10.33-3.44,8.2,8.47,11.11,4.76,6.09-6.61,7.94-7.14,4.5-6.62,3.18-8.74-3.18-2.91.79-6.35,4.77-6.62,1.06-9.79-3.7-4-3.44-7.94-4-6.09-5.29-6.36S593.74,346.45,577.06,353.33Z" style="fill:#fff;stroke:#263238;stroke-linecap:round;stroke-linejoin:round"></path><path d="M586.06,345.65a9.77,9.77,0,0,0-1-.32,7,7,0,0,0-4.52.06c-2.12,1.06-2.12,2.65-2.12,4s-6.08,1.85-6.08,4.5,3.17,4.76,3.44,7.14-4.24,7.42-.8,9.8,7.15-1.06,7.68,2.38,1.85,8.21,7.41,6.09,8.74-2.38,10.59.79a6.93,6.93,0,0,0,10.85,1.06c3.71-3.7,5.82-5.82,10.32-4.76s5.56-5.56,3.44-8.74.53-3.17,1.86-6.62-.53-6.88-2.39-9a11.08,11.08,0,0,1-2.38-7.15c0-2.12-5-4.77-7.94-2.91s-6.88,2.38-11.38.53-6.35-4.77-9.79-1.86A53.14,53.14,0,0,1,586.06,345.65Z" style="fill:#FF0066;stroke:#263238;stroke-linecap:round;stroke-linejoin:round"></path><path d="M513.64,206.31s-.81,5.13.54,7.3,6.22,3.24,8.38,1.62,5.68,1.08,9.47,1.08,4.59-4.33,6.48-5.95,7.3.81,10.55-1.89,1.35-8.65,2.43-11.08,7.3.54,9.19-4.33,1.35-6.49,1.62-10.54,2.71-5.41,2.71-9.74-5.41-7.56-5.41-7.56S547.71,177.38,542,183.06s-17,14.06-20.82,16.49A43.61,43.61,0,0,0,513.64,206.31Z" style="fill:#fff;stroke:#263238;stroke-linecap:round;stroke-linejoin:round"></path><path d="M506.07,199.28s.54,1.08-.27,5.13.54,7,3,5.41,6.48-2.7,10-.27,8.92,1.08,11.08-1.08,5.68-2.7,9.47-2.7,5.67-.27,5.94-5.14,1.9-6.49,7-9.46,6.22-7.57,5.14-10.55-1.08-4.59,2.43-7.29,6.49-7.3,4.06-10.55-4.06-4.59-3.79-8.92-1.08-7.84-7.57-7-18.92,12.71-18.92,12.71Z" style="fill:#FF0066;stroke:#263238;stroke-linecap:round;stroke-linejoin:round"></path><path d="M500.94,187.65a69.81,69.81,0,0,0-1.63,7.57c-.81,4.87,1.63,7.84,5.14,5.68s5.95-3.51,8.65-.54,7,3.51,9.19.27,5.14-4.6,8.38-3.24,6.49.81,7.3-3,4.6-6.76,6.22-6.76,3.79-6.76,3.25-8.38,1.35-5.13,5.67-6.21,3.79-4.33,2.44-8.66-1.09-5.13,1.08-10.27,2.16-11.89-5.68-9.73a68.67,68.67,0,0,1-13.52,2.43s-5.13,12.71-11.62,20.82-9.46,11.08-13.52,12.43S500.94,187.65,500.94,187.65Z" style="fill:#fff;stroke:#263238;stroke-linecap:round;stroke-linejoin:round"></path><path d="M516.35,154.67s.81,2.71-.54,4.06a5.53,5.53,0,0,1-3.46,1.37s-4.92,10.79-7.09,15.39-9.46,10.54-7,13.52,8.11-1.36,10.55.54,8.92,6.75,12.43,3,4.87-7,9.46-5.68,6.76-.81,6.76-6,3.25-5.94,7-8.38,3.52-7.84,1.35-11.62.81-1.35,1.63-7.84-4.87-10-9.2-7.57-5.67,1.08-9.73,1.62S516.35,154.67,516.35,154.67Z" style="fill:#FF0066;stroke:#263238;stroke-linecap:round;stroke-linejoin:round"></path><path d="M516.74,162.92s1.88,12.53,1.88,15.67" style="fill:none;stroke:#263238;stroke-linecap:round;stroke-linejoin:round"></path><line x1="533.35" y1="170.45" x2="534.6" y2="171.07" style="fill:none;stroke:#263238;stroke-linecap:round;stroke-linejoin:round"></line><line x1="519.25" y1="163.54" x2="530.08" y2="168.85" style="fill:none;stroke:#263238;stroke-linecap:round;stroke-linejoin:round"></line><line x1="535.52" y1="155.28" x2="538.99" y2="155.08" style="fill:none;stroke:#263238;stroke-linecap:round;stroke-linejoin:round"></line><line x1="517.37" y1="156.34" x2="531.15" y2="155.54" style="fill:none;stroke:#263238;stroke-linecap:round;stroke-linejoin:round"></line><line x1="509.94" y1="174.12" x2="508.28" y2="178.59" style="fill:none;stroke:#263238;stroke-linecap:round;stroke-linejoin:round"></line><line x1="513.29" y1="165.11" x2="510.94" y2="171.44" style="fill:none;stroke:#263238;stroke-linecap:round;stroke-linejoin:round"></line><path d="M516.35,154.67s-12.71-5.95-16.49-6.49-15.95.54-15.95,1.36,1.35.81,3.78.81a38.39,38.39,0,0,1,6.22.81l1.62.81s-11.08.54-11.08,2.43,11.35-.54,11.35-.54-8.65,3-6.76,4.33,7.84-1.9,7.84-1.9-2.16,3.79-.81,3.79,5.41-3.52,5.41-3.52,3.51,2.71,5.95,2.71a39.08,39.08,0,0,1,7.29,1.35A5,5,0,0,0,516.35,154.67Z" style="fill:#fff;stroke:#263238;stroke-linecap:round;stroke-linejoin:round"></path><path d="M509.59,153.86s-5.41-1.89-6.49-2.16-10.81,0-10.81,1.35,9.73,1.89,9.73,1.89-.27,5.68,7,2.71" style="fill:#fff;stroke:#263238;stroke-linecap:round;stroke-linejoin:round"></path><path d="M582.88,279.75s-5.82,8.47-6.88,27,4.5,28.33,7.15,36.53,5.56,21.18,10.32,23.56,15.62,5,19.59-1.06,4.5-20.65,5-29.65-.8-28.85-6.62-35.46S592.15,279.22,582.88,279.75Z" style="fill:#fff;stroke:#263238;stroke-linecap:round;stroke-linejoin:round"></path><path d="M633.74,167.53s5.37-4.55,7.44-6.62,9.1-7.44,9.93-10.75S647.8,127.83,637.87,122s-19.85-4.55-28.12,2.48-9.92,14.47-7.44,18.61,2.07,5.21,2.07,5.21.3-3.18.41-1.07c.07,1.31-.41,1.07-.41,1.07s2.48-5.62,7.44-8.11a116.56,116.56,0,0,1,12.41-5s8.68,11.17,9.51,19.44S633.74,167.53,633.74,167.53Z" style="fill:#fff;stroke:#263238;stroke-linecap:round;stroke-linejoin:round"></path><path d="M625.67,131.4a63.39,63.39,0,0,0-14.28,4.6,24.59,24.59,0,0,0-8.78,7.66c1.56,2.7,1.79,4,1.79,4.43.08-.7.3-2.56.39-.82v.25c.89-1.65,3.23-5.39,7-7.29a116.56,116.56,0,0,1,12.41-5s1.29,1.67,2.92,4.18c1.48-.51,2.39-.79,2.39-.79Z" style="fill:#263238"></path><path d="M633.74,167.53s2.73-2.31,5-4.39a34.5,34.5,0,0,0-1.27-12.38,50.28,50.28,0,0,0-16.58-25.3c-1.89-1.43-4.35-3-6.42-4.25a27.47,27.47,0,0,0-3.33,2.17c2.62,1.82,9.73,7,13,11.89,0,0,8.68,11.17,9.51,19.44S633.74,167.53,633.74,167.53Z" style="fill:#263238"></path><path d="M604.79,147.52c-.27.5-.41.82-.41.82S604.79,148.53,604.79,147.52Z" style="fill:#fff;stroke:#263238;stroke-linecap:round;stroke-linejoin:round"></path><path d="M604.4,148.09c0,.15,0,.25,0,.25A1,1,0,0,0,604.4,148.09Z" style="fill:#fff;stroke:#263238;stroke-linecap:round;stroke-linejoin:round"></path></g><g id="freepik--character-2--inject-143"><ellipse cx="411.6" cy="467" rx="77.4" ry="17" style="opacity:0.1"></ellipse><path d="M418.34,131.84c.83,0,3.59-3,3.59-5.24a32.41,32.41,0,0,0-.28-4.14s3.86-4.41-1.93-7.71-16.54-8.83-27.84-3.59-15.44,16-14.34,20.13a37.73,37.73,0,0,0,3.58,8.27s-1.65,6.34,1.93,7.72,10.64-2.7,11-6.35,2.76-9.37,6.34-9.37,14.34-1.93,14.34-1.93Z" style="fill:#263238;stroke:#263238;stroke-linecap:round;stroke-linejoin:round"></path><path d="M374,449.47s-7.14,8.63-9.22,10.71-7.43,7.73-6.24,10.11,7.13,5.65,13.68,3.87,10.41-9.22,11.9-9.81,5.94-1.79,8-5.06a19,19,0,0,0,2.38-7.73Z" style="fill:#FF0066;stroke:#263238;stroke-linecap:round;stroke-linejoin:round"></path><path d="M392.14,459.29a19,19,0,0,0,2.38-7.73l-.29,0c-.31.89-.77,2.13-1.5,3.89-2.08,5.06-8.33,5.95-10.41,8.63s-6.54,7.14-13.09,8c-4.4.6-8.52-1.76-10.76-3.37a2.27,2.27,0,0,0,.06,1.58c1.19,2.38,7.13,5.65,13.68,3.87s10.41-9.22,11.9-9.81S390.05,462.56,392.14,459.29Z" style="fill:#fff;stroke:#263238;stroke-linecap:round;stroke-linejoin:round"></path><path d="M455.32,449.47s7.14,8.63,9.22,10.71,7.43,7.73,6.24,10.11-7.13,5.65-13.68,3.87-10.41-9.22-11.9-9.81-5.94-1.79-8-5.06a19,19,0,0,1-2.38-7.73Z" style="fill:#FF0066;stroke:#263238;stroke-linecap:round;stroke-linejoin:round"></path><path d="M437.17,459.29a19,19,0,0,1-2.38-7.73l.29,0c.31.89.77,2.13,1.5,3.89,2.08,5.06,8.33,5.95,10.41,8.63s6.54,7.14,13.09,8c4.4.6,8.52-1.76,10.76-3.37a2.22,2.22,0,0,1-.06,1.58c-1.19,2.38-7.13,5.65-13.68,3.87s-10.41-9.22-11.9-9.81S439.26,462.56,437.17,459.29Z" style="fill:#fff;stroke:#263238;stroke-linecap:round;stroke-linejoin:round"></path><path d="M393,174s-19.85,8-25.09,9.65S356,197.45,358.24,208.2s11.31,37.77,13.24,45.21a191.63,191.63,0,0,1,3.86,21c0,1.11-4.14,20.4-4.14,32.81s.28,38.87.55,39.7-4.7,80.35-4.15,87,1.1,16.27,1.1,16.27.83,1.93,8.55,3.58,20.4,0,20.4,0,6.08-44,6.36-53.05,1.37-44.39,1.37-44.39l4.42-34.73,6.89.55,7.72,32.8,3,95.79s10.19,3,13.49,3,10.86-1.85,12.79-2.68,4.76-1.78,4.76-1.78,4.27-46.9,1.51-63.72-3.58-65.33-6.07-82.7-9.09-41.08-9.09-41.08-1.38-17.64-1.38-21.22S442.6,222,442.6,222a104,104,0,0,1,1.93-18.19c1.93-9.65,4.41-19-.83-24s-17.64-5.24-23.43-6.07S397.94,173.47,393,174Z" style="fill:#fff;stroke:#263238;stroke-linecap:round;stroke-linejoin:round"></path><path d="M417.49,282.49c12.33-1.59,22.66-7.36,29.56-12.33-1.31-5.12-2.24-8.48-2.24-8.48s-1.38-17.64-1.38-21.22S442.6,222,442.6,222a104,104,0,0,1,1.93-18.19c1.93-9.65,4.41-19-.83-24s-17.64-5.24-23.43-6.07-22.33-.28-27.29.28c0,0-19.85,8-25.09,9.65S356,197.45,358.24,208.2s11.31,37.77,13.24,45.21a191.63,191.63,0,0,1,3.86,21,3.45,3.45,0,0,1,0,.4C384.83,278.7,402.05,284.47,417.49,282.49Z" style="fill:#FF0066;stroke:#263238;stroke-linecap:round;stroke-linejoin:round"></path><polygon points="379.09 181.14 425.56 256.74 436.72 253.02 384.67 176.81 379.09 181.14" style="fill:#263238;stroke:#263238;stroke-linecap:round;stroke-linejoin:round"></polygon><path d="M448.14,262.21l-73.6,3.07,13.67,90c.2,6.46,10.63,11.38,23.29,11s22.75-5.95,22.55-12.41c0-.14,0-.27,0-.41Z" style="fill:#7d7d7d;stroke:#263238;stroke-linecap:round;stroke-linejoin:round"></path><path d="M374.54,265.28l1.72,11.38c6.73,5,20.12,8.21,35.45,7.74,15-.47,27.94-4.31,34.48-9.57l1.95-12.62Z" style="fill:#fff;stroke:#263238;stroke-linecap:round;stroke-linejoin:round"></path><ellipse cx="411.2" cy="263.35" rx="36.96" ry="15.2" transform="translate(-7.96 12.87) rotate(-1.78)" style="fill:#fff;stroke:#263238;stroke-linecap:round;stroke-linejoin:round"></ellipse><polygon points="436.55 293.29 439.07 292.73 439.07 278.36 436.55 278.92 436.55 293.29" style="fill:#fff;stroke:#263238;stroke-linecap:round;stroke-linejoin:round"></polygon><rect x="419.41" y="282.17" width="2.65" height="15.88" style="fill:#fff;stroke:#263238;stroke-linecap:round;stroke-linejoin:round"></rect><polygon points="384.87 292.53 382.35 291.97 382.35 277.6 384.87 278.16 384.87 292.53" style="fill:#fff;stroke:#263238;stroke-linecap:round;stroke-linejoin:round"></polygon><rect x="398.99" y="281.41" width="2.65" height="15.88" style="fill:#fff;stroke:#263238;stroke-linecap:round;stroke-linejoin:round"></rect><path d="M391.6,159.68v13c0,2.2-3.58,8.27-2.2,12.4s9.92,10.2,18.19,8.83,12.13-8.83,13-12.13-2.76-9.65-2.76-9.65l-1.1-12.68S402.08,164.09,391.6,159.68Z" style="fill:#fff;stroke:#263238;stroke-linecap:round;stroke-linejoin:round"></path><path d="M383.88,144.52s-2.48-3.86-4.41-.55.55,9.37,1.38,10.47,6.06,1.93,6.06,1.93,3.59,6.89,6.9,9.65,13.5,6.07,18.19,3.86,6.07-7.17,7.44-11.85.56-18.2.56-18.2l-3-15.71s-5.51,4.13-11.85,4.41-16.82.27-16.82.27,1.93,6.9,1.66,8.28a13.79,13.79,0,0,0-.28,2.48l-3,.27S386.09,145.07,383.88,144.52Z" style="fill:#fff;stroke:#263238;stroke-linecap:round;stroke-linejoin:round"></path><polygon points="389.67 139.56 381.4 141.76 382.23 143.14 388.84 143.14 389.67 139.56" style="fill:#263238;stroke:#263238;stroke-linecap:round;stroke-linejoin:round"></polygon><path d="M405.81,138.37s-6.7-2.44-11.33-1.08-6.19,2.17-6.19,4.89v2.72a9.91,9.91,0,0,0,7.22,7.06c5.92,1.36,9.53-8.42,11.08-9.24s4.12,4.9,7.73,6.53,8.24-.82,9.53-5.44,0-6.52-.51-7.88S415.09,132.94,405.81,138.37Z" style="fill:#263238;stroke:#263238;stroke-linecap:round;stroke-linejoin:round"></path><path d="M412,151.41s-.27,1.65-2.76,2.48a8.25,8.25,0,0,1-3.86.55" style="fill:none;stroke:#263238;stroke-linecap:round;stroke-linejoin:round"></path><path d="M411.45,157.2s-6.62,1.93-11.85-1.93" style="fill:none;stroke:#263238;stroke-linecap:round;stroke-linejoin:round"></path><path d="M398.49,168.5s-2.48-3.86.28-3.86,5.79,4.14,10.47,2.76,6.07-5.51,7.45-5.79,1.65,2.48-.28,6.07-4.41,5-8.54,5S398.49,168.5,398.49,168.5Z" style="fill:#263238;stroke:#263238;stroke-linecap:round;stroke-linejoin:round"></path><path d="M372.36,183.8s-12.8,1.35-19.3,7.26-9.91,26.91-10.65,32.53-3,21.57-3.94,24.45,3.14,5.83,8.39,5.92,11.22-7.54,12.12-12.08,6.84-23.31,6.84-23.31" style="fill:#FF0066;stroke:#263238;stroke-linecap:round;stroke-linejoin:round"></path><path d="M342.85,221.15c-.2,1-.36,1.82-.44,2.44-.74,5.61-3,21.57-3.94,24.45s3.14,5.83,8.39,5.92,11.22-7.54,12.12-12.08c.56-2.81,3-11,4.84-16.91C356.38,220.77,346.51,220.84,342.85,221.15Z" style="fill:#fff;stroke:#263238;stroke-linecap:round;stroke-linejoin:round"></path><path d="M339.19,246.08s-.15-.6-1.94,4.77-1.93,12.82.75,13.86,8.05-.59,11.63-3.13,29.17-18.32,29.17-18.32,5.22-.74,6.26-1.78,4.17-4.48,4.17-4.48l5.82.45s4.47.75,5.36.45,0-1.2,0-1.2l.75-.14a2.34,2.34,0,0,0,2.09-2.54s1.49-.45,1.49-1.49a2.44,2.44,0,0,0-.6-1.64l1.34-.89c.9-1.64-4.92-4.33-5.36-4.48s-9.39-.89-11.93-.44-11.92,10.28-11.92,10.28-15.76,6.25-18.44,7.14-12.38,1.34-12.38,1.34" style="fill:#fff;stroke:#263238;stroke-linecap:round;stroke-linejoin:round"></path><path d="M391,234.47s8.2,1,9.39,2.23" style="fill:#fff;stroke:#263238;stroke-linecap:round;stroke-linejoin:round"></path><path d="M403.25,234s-8.05-3-11.63-3.13" style="fill:#fff;stroke:#263238;stroke-linecap:round;stroke-linejoin:round"></path><path d="M404.14,230.89s-8.35-3.13-10.14-3.13" style="fill:#fff;stroke:#263238;stroke-linecap:round;stroke-linejoin:round"></path><path d="M438.28,178.06s14.31,1.71,18.29,9.67,10.37,26.5,12.77,31.76,4.81,12.21,5.19,15.07-9.27,6.83-12.43,6.77-13.18-15-15.77-18-6-6.72-6-6.72" style="fill:#FF0066;stroke:#263238;stroke-linecap:round;stroke-linejoin:round"></path><path d="M464.3,206.59c-14.36,2.17-16.86,13.09-17.28,17.6,3.35,4.31,12.15,17.09,15.08,17.14,3.16.06,12.82-3.91,12.43-6.77s-2.78-9.82-5.19-15.07C468.27,217.14,466.4,212.13,464.3,206.59Z" style="fill:#fff;stroke:#263238;stroke-linecap:round;stroke-linejoin:round"></path><path d="M420.6,248.09s-7.54,1.49-10.24,1.49-3.77,2.29-.67,3,7.28-.94,7.28-.94Z" style="fill:#fff;stroke:#263238;stroke-linecap:round;stroke-linejoin:round"></path><path d="M473.61,231.2c1.92,3.61,5.05,12.27,1,14.43s-33,4.88-33,4.88-5.77,3.61-7.45,4.09-6,1.44-6,1.44a27,27,0,0,1-3.84,5c-1.69,1.44-1.93,0-1.93,0s3.85-6.73,3.13-6.49-5.53,6.25-5.53,6.25-1.68,1.2-2.65.24,3.37-6,3.37-6-6.73,6-7.45,6-1.93,0-1.93-1,4.81-5.77,4.81-5.77-5.05,4.09-6.73,4.09-1.44-.24-1.44-1,10.58-9.38,12.5-10.1S436.51,245,436.51,245L459,231.74" style="fill:#fff;stroke:#263238;stroke-linecap:round;stroke-linejoin:round"></path><line x1="416.07" y1="254.36" x2="419.53" y2="251.19" style="fill:#fff;stroke:#263238;stroke-linecap:round;stroke-linejoin:round"></line><line x1="420.64" y1="255.08" x2="423.17" y2="252.41" style="fill:#fff;stroke:#263238;stroke-linecap:round;stroke-linejoin:round"></line><path d="M441.3,214s-1,4.57-6.85,9.79" style="fill:#fff;stroke:#263238;stroke-linecap:round;stroke-linejoin:round"></path><path d="M363.35,216.93s7.5,8.8,11.09,10.43" style="fill:#fff;stroke:#263238;stroke-linecap:round;stroke-linejoin:round"></path></g><g id="freepik--character-1--inject-143"><ellipse cx="174.7" cy="467" rx="66.5" ry="17" style="opacity:0.1"></ellipse><path d="M165.93,269.93s-7.25-13.46-62.64-23.29-77.14-10.88-77.14-10.88-6.21-8.8,7.25-16a47.2,47.2,0,0,1,26.92-5.18s-19.15-2.07-22.78-7.77,7.25-10.35,7.25-10.35-8.8-2.07-11.91-8.8,21.75-14,21.75-14-16.05-6.73-16.05-13.46,19.67-8.8,19.67-8.8-12.94,1.56-11.91-4.66,11.39-5.17,11.39-5.17-23.29-15-11.91-25.89,30-6.73,30-6.73-9.32-9.32-4.14-13.46S81,93.92,81,93.92,68.6,86.67,77.92,76.84s34.69,2.07,34.69,2.07-5.18-11.39,1-13,14,2.59,14,2.59-3.11-9.32,5.69-21.22S153,54.06,153,54.06s2.07-10.87,4.65-10.36,3.63,6.73,3.63,6.73,3.62-11.9,12.94-12.42S187.15,58.2,187.15,58.2s5.7-6.21,8.29-5.7,3.1,4.66,3.1,4.66,5.18-15,16.57-14.49S226,61.31,226,61.31s2.59-5.18,6.21-4.66,4.14,7.76,4.14,7.76,15.53-9.32,20.71-6.73,3.11,21.74,3.11,21.74,6.21-3.1,11.38-1.55,1.56,9.84,1.56,9.84,17.08-9.84,22.78.51-2.07,25.89-2.07,25.89,8.8-7.25,8.8-2.07a7,7,0,0,1-4.15,6.73s17.09-4.66,16.57,5.69S305.7,140,305.7,140s15-.51,15,3.63-4.14,6.73-4.14,6.73,18.12,1,18.12,12.42-18.12,19.67-18.12,19.67,11.39-6.21,7.77.52-8.8,7.25-8.8,7.25,9.83-2.07,10.35,3.62-7.25,6.21-7.25,6.21,18.64,14,9.84,19.68-23.3,6.73-23.3,6.73,10.88,3.1,5.7,6.73-45,4.14-70.41,12.94-60.57,26.4-60.57,26.4Z" style="fill:#FF0066;stroke:#263238;stroke-linecap:round;stroke-linejoin:round"></path><path d="M155.23,254.56s-23.65-17.74-52.54-22.33" style="fill:none;stroke:#263238;stroke-linecap:round;stroke-linejoin:round"></path><path d="M110.78,215.69a125.6,125.6,0,0,1,32.82,18.79" style="fill:none;stroke:#263238;stroke-linecap:round;stroke-linejoin:round"></path><path d="M100.06,212.52a49.51,49.51,0,0,1,5.43,1.37" style="fill:none;stroke:#263238;stroke-linecap:round;stroke-linejoin:round"></path><path d="M190,238.79s25-25.61,61.73-34.8" style="fill:none;stroke:#263238;stroke-linecap:round;stroke-linejoin:round"></path><path d="M237.14,231.19c2.37-.41,4.84-.73,7.41-.93" style="fill:none;stroke:#263238;stroke-linecap:round;stroke-linejoin:round"></path><path d="M194.63,253.9s11.11-13.68,32.65-20.34" style="fill:none;stroke:#263238;stroke-linecap:round;stroke-linejoin:round"></path><path d="M216.27,165.17a112.17,112.17,0,0,1,10.54-9.78" style="fill:none;stroke:#263238;stroke-linecap:round;stroke-linejoin:round"></path><path d="M181.5,229.6s6.94-31.92,30.14-59.27" style="fill:none;stroke:#263238;stroke-linecap:round;stroke-linejoin:round"></path><path d="M135,165.79C145.33,179,161,202.13,164.42,225" style="fill:none;stroke:#263238;stroke-linecap:round;stroke-linejoin:round"></path><path d="M125.67,154.73s1.79,1.9,4.61,5.24" style="fill:none;stroke:#263238;stroke-linecap:round;stroke-linejoin:round"></path><path d="M334.69,162.77c0-11.39-18.12-12.42-18.12-12.42s4.14-2.59,4.14-6.73-15-3.63-15-3.63,8.8-5.17,9.32-15.53-16.57-5.69-16.57-5.69A7,7,0,0,0,302.6,112c0-5.18-8.8,2.07-8.8,2.07s7.76-15.53,2.07-25.89-22.78-.51-22.78-.51,3.62-8.29-1.56-9.84-11.38,1.55-11.38,1.55,2.07-19.15-3.11-21.74-20.71,6.73-20.71,6.73-.52-7.25-4.14-7.76S226,61.31,226,61.31s.52-18.12-10.87-18.64-16.57,14.49-16.57,14.49S198,53,195.44,52.5s-8.29,5.7-8.29,5.7S183.53,37.49,174.21,38s-12.94,12.42-12.94,12.42-1-6.21-3.63-6.73S153,54.06,153,54.06s-10.88-18.64-19.68-6.73-5.69,21.22-5.69,21.22-7.77-4.14-14-2.59-1,13-1,13S87.24,67,77.92,76.84,81,93.92,81,93.92s-4.14-2.59-9.32,1.55,4.14,13.46,4.14,13.46-18.64-4.14-30,6.73,11.91,25.89,11.91,25.89-10.35-1-11.39,5.17c-1,5.91,10.67,4.8,11.81,4.67-1.42.16-19.57,2.33-19.57,8.79,0,6.73,16.05,13.46,16.05,13.46s-24.85,7.25-21.75,14,11.91,8.8,11.91,8.8-10.87,4.66-7.25,10.35c3.21,5,18.54,7.24,22.05,7.68a47.6,47.6,0,0,0-26.19,5.27c-13.46,7.24-7.25,16-7.25,16s12.89.62,44,5.38c3.87-.53,6.38-1.89,5.72-4.71-2.24-9.72-6.72-12.71-6.72-12.71s20.18,1.49,21.68-7.48-18.69-15.7-18.69-15.7,17.19,3,15.7-4.48c-1.3-6.49-3.16-8.47-3.63-8.88,1,.82,8.76,6.74,7.36-2.34-1.49-9.71-7.16-19.21-7.16-19.21s13.14,8.75,15.39,1.27S88.6,148.21,88.6,148.21s10.47,8.23,13.46,1.5a31.65,31.65,0,0,0,2.24-14.2s9,9.71,10.47,5.23a35.72,35.72,0,0,0,1.49-9.72l-3-16.45s14.42,12,18.42,7.52S135,104.86,135,104.86s4.36,11.32,10.79,9.25,7.9-16.73,7.9-16.73,14.21,20.18,18.69,12.71c3.09-5.15,8.31-14.56,11.26-19.92a17.19,17.19,0,0,0,4.08,1.68c10.83,3.29,13.82-.45,13.82-.45S200,107.85,203,109.34s19.44-12,19.44-12-11.22,15.7,3.74,15.7,20.18-6,20.18-6-7.48,10.46-2.24,13.45,12,2.25,12,2.25a4.93,4.93,0,0,0,0,6.72c3,3.74,11.21,2.25,11.21,2.25s-13.45,17.94-8.22,26.16,23.92,1.5,23.92,1.5-10.47,9.72-6.73,11.21a28.79,28.79,0,0,0,9,1.5S274,174.38,280,182.6s13.46,9,13.46,9-12.71,0-10.47,6.73,6,6.73,6,6.73-9,4.48-7.47,7.47,14.95,6.73,14.95,6.73S280,222.22,280,229.7c0,2.91,3.28,5.47,7.29,7.52,11.9-1.41,21.28-2.41,23.61-4,5.18-3.63-5.7-6.73-5.7-6.73s14.5-1,23.3-6.73S318.64,200,318.64,200s7.77-.51,7.25-6.21c-.45-5-7.95-4-9.89-3.7,1.34-.3,5.36-1.64,8.34-7.17,2.72-5.06-3-2.8-6.07-1.37C322.78,179.2,334.69,172,334.69,162.77Z" style="fill:#fff;stroke:#263238;stroke-linecap:round;stroke-linejoin:round"></path><path d="M135.23,315.84s-9,21.59-13.8,35.22-4.75,18.05-3.8,19.95,31.54,57.3,35.34,63.32l3.8,6s-4.43,14.26-5.07,17.43-5.7,6-4.43,8.23,7.92-2.22,11.4-2.85,7-10.77,8.56-13,5.27-3.11,2.53-7.92c-1.27-2.21-5.39-6-5.39-6s-13.8-48.43-16-55.4-5.38-15.2-5.38-15.2l27.11-41.24Z" style="fill:#fff;stroke:#263238;stroke-linecap:round;stroke-linejoin:round"></path><path d="M133.83,319.22c3.83,1.68,14.09,6.17,17.44,7.66,3,1.35,9,5.64,12,7.86l6.8-10.35-34.85-8.55Z" style="fill:#263238;stroke:#263238;stroke-linecap:round;stroke-linejoin:round"></path><path d="M171.34,444.79l1.22,13.1a1.14,1.14,0,0,1-.32.89h0a1.11,1.11,0,0,1-1.83-.39l-3.18-8.22Z" style="fill:#263238;stroke:#263238;stroke-linecap:round;stroke-linejoin:round"></path><path d="M167.41,439.28a45.91,45.91,0,0,1-.82,8.36c-1,3.17-9.19,13-9.19,13l-6.49-1c-1.58,2.44-4.66,4.64-3.64,6.42,1.26,2.22,7.92-2.22,11.4-2.85s7-10.77,8.56-13,5.27-3.11,2.53-7.92A18.78,18.78,0,0,0,167.41,439.28Z" style="fill:#263238;stroke:#263238;stroke-linecap:round;stroke-linejoin:round"></path><path d="M160.47,424.42c-.35-1-.7-2.13-1.07-3.24a104.74,104.74,0,0,1-10.11,7.26l1.64,2.64A69.85,69.85,0,0,0,160.47,424.42Z" style="fill:#263238;stroke:#263238;stroke-linecap:round;stroke-linejoin:round"></path><path d="M167,438.87c-1.15-1.22-2.24-2.25-2.56-2.54a13.47,13.47,0,0,1-7.93,4.76c-.21.7-.56,1.84-1,3.22C158.67,443.93,163.63,442.71,167,438.87Z" style="fill:#263238;stroke:#263238;stroke-linecap:round;stroke-linejoin:round"></path><path d="M178.63,318.69s1.9,42.46,2.85,54.19,7.6,59.24,7.6,65.57-4.11,24.08-3.8,28.2,4.12,10.13,6.34,7.28A27,27,0,0,0,197,459.36c.32-6.34.32-9.19.32-15.52s7.92-27.25,9.82-39.6-4.43-30.41-4.75-35.8,11.4-51.65,11.4-51.65S184.65,319.33,178.63,318.69Z" style="fill:#fff;stroke:#263238;stroke-linecap:round;stroke-linejoin:round"></path><path d="M178.63,318.69s.3,6.65.72,15.4a32.8,32.8,0,0,1,16.2-9.51,82.43,82.43,0,0,1,16.79-2c.88-3.57,1.45-5.82,1.45-5.82S184.65,319.33,178.63,318.69Z" style="fill:#263238;stroke:#263238;stroke-linecap:round;stroke-linejoin:round"></path><path d="M186.55,464.11l-.32-2.22-.5-.43a29.41,29.41,0,0,0-.45,5.19c.32,4.11,4.12,10.13,6.34,7.28a27.43,27.43,0,0,0,4.84-10.65C192.27,467.69,186.55,464.11,186.55,464.11Z" style="fill:#263238;stroke:#263238;stroke-linecap:round;stroke-linejoin:round"></path><path d="M188.83,442c-.1.94-.24,1.95-.39,3a9.86,9.86,0,0,0,8.88.26v-1.42a11.9,11.9,0,0,1,.09-1.37A16.21,16.21,0,0,1,188.83,442Z" style="fill:#263238;stroke:#263238;stroke-linecap:round;stroke-linejoin:round"></path><path d="M188.72,433.49c.08.81.15,1.57.2,2.22a30.46,30.46,0,0,0,9.72.8c.23-.91.49-1.87.76-2.86A57.61,57.61,0,0,1,188.72,433.49Z" style="fill:#263238;stroke:#263238;stroke-linecap:round;stroke-linejoin:round"></path><path d="M144.42,290.5S127,305.39,122.87,307.6s-6,3.17-6,3.17S126.36,320,153.6,325s46.89,0,55.76-3.8a57.44,57.44,0,0,1,18.37-4.12s-2.78-15.54-6.33-20.28c-1.9-2.53-4.76-6.65-4.76-6.65l-3.48-4.75A211.87,211.87,0,0,0,190,289.55c-9.82,2.53-21.85,3.8-28.51,3.17S144.42,290.5,144.42,290.5Z" style="fill:#FF0066;stroke:#263238;stroke-linecap:round;stroke-linejoin:round"></path><path d="M146.32,295.88s-8.56,9.82-14.58,13.31" style="fill:none;stroke:#263238;stroke-linecap:round;stroke-linejoin:round"></path><path d="M143.35,311.36a32.4,32.4,0,0,1-2.42,2.58" style="fill:none;stroke:#263238;stroke-linecap:round;stroke-linejoin:round"></path><path d="M152.34,298.42a123.06,123.06,0,0,1-6.84,10.24" style="fill:none;stroke:#263238;stroke-linecap:round;stroke-linejoin:round"></path><path d="M159.31,300A70.63,70.63,0,0,1,152,314.26" style="fill:none;stroke:#263238;stroke-linecap:round;stroke-linejoin:round"></path><path d="M163.16,316.18a15.52,15.52,0,0,1-1.64,3.15" style="fill:none;stroke:#263238;stroke-linecap:round;stroke-linejoin:round"></path><path d="M167.71,300.71s-1.3,5.77-3,11" style="fill:none;stroke:#263238;stroke-linecap:round;stroke-linejoin:round"></path><path d="M175.46,306.34c-.56,4.57-1.45,10.45-2.53,13" style="fill:none;stroke:#263238;stroke-linecap:round;stroke-linejoin:round"></path><path d="M176.12,300.22s-.13,1.47-.37,3.61" style="fill:none;stroke:#263238;stroke-linecap:round;stroke-linejoin:round"></path><path d="M187.14,311.71a21.29,21.29,0,0,1,0,5.4" style="fill:none;stroke:#263238;stroke-linecap:round;stroke-linejoin:round"></path><path d="M184.33,299.68a73.12,73.12,0,0,1,2.23,8.43" style="fill:none;stroke:#263238;stroke-linecap:round;stroke-linejoin:round"></path><path d="M193.2,297.15s4.12,7,4.12,14.26" style="fill:none;stroke:#263238;stroke-linecap:round;stroke-linejoin:round"></path><path d="M203,293s4.75,12,4.75,19.64" style="fill:none;stroke:#263238;stroke-linecap:round;stroke-linejoin:round"></path><path d="M218.84,307.29a11.51,11.51,0,0,1,0,4.75" style="fill:none;stroke:#263238;stroke-linecap:round;stroke-linejoin:round"></path><path d="M210.63,289.55a71.59,71.59,0,0,1,6.85,13" style="fill:none;stroke:#263238;stroke-linecap:round;stroke-linejoin:round"></path><path d="M194.92,145.17a100,100,0,0,1,19.15-11.39c11.39-5.18,36.76,2.07,42.45-7.76s-10.87-18.64-19.15-18.64-20.71,5.69-20.71,5.69,5.69-12.94-3.62-10.87-26.92,24.85-26.92,24.85,6.21-13.46,7.76-25.88S183,91.72,183,91.72s4.13-37.92-3.17-43.45c-10.64-8.05-16,7.86-17.52,15.62s-.51,25.37-.51,25.37-6.73-14-9.32-4.66,4.14,25.37,5.69,28.47a85.56,85.56,0,0,1,3.63,10.36s-10.36-20.19-18.12-20.19,2.07,10.87,2.07,10.87-14.5-9.32-31.58-8.8-18.12,15-14,18.12,28.47,6.73,28.47,6.73-7.76,2.59,1,6.73,31.58,10.87,31.58,10.87S182.49,149.31,194.92,145.17Z" style="fill:#FF0066;stroke:#263238;stroke-linecap:round;stroke-linejoin:round"></path><path d="M234.56,121.07a56.25,56.25,0,0,1,6.57.59" style="fill:none;stroke:#263238;stroke-linecap:round;stroke-linejoin:round"></path><path d="M186.31,135s17.67-11.3,38.95-13.55" style="fill:none;stroke:#263238;stroke-linecap:round;stroke-linejoin:round"></path><line x1="173.57" y1="69.81" x2="173.66" y2="66.12" style="fill:none;stroke:#263238;stroke-linecap:round;stroke-linejoin:round"></line><line x1="172.42" y1="115.49" x2="173.39" y2="76.81" style="fill:none;stroke:#263238;stroke-linecap:round;stroke-linejoin:round"></line><path d="M114.38,114.53c-1.35-.16-2.71-.25-4.08-.28" style="fill:none;stroke:#263238;stroke-linecap:round;stroke-linejoin:round"></path><path d="M152.26,132.36s-14.77-13-32.71-17" style="fill:none;stroke:#263238;stroke-linecap:round;stroke-linejoin:round"></path><path d="M159.61,189.45l-.75,8.56a53.84,53.84,0,0,1-16-7.07l-1.49,24.56s-.37,13.77,2.23,19,8.19,16.38,8.93,22.33-5.58,23.45-6.69,26.8-3.35,8.93-3.35,8.93,7.07,8.19,26.42,8.19,45-12.66,45-12.66,2.61-2.23-4.84-15.26a132.84,132.84,0,0,0-15.26-21.58,55.42,55.42,0,0,1,4.1-16.75c3.72-8.93,7.07-28.66,7.07-32a15.46,15.46,0,0,0-.74-5.22s-10.05-.74-16-.74H177.47V185Z" style="fill:#fff;stroke:#263238;stroke-linecap:round;stroke-linejoin:round"></path><path d="M168.27,187.28l-8.66,2.17-.7,8a9.1,9.1,0,0,0,6.4.05c3.72-1.65,10.75-7.44,10.75-7.44Z" style="fill:#263238;stroke:#263238;stroke-linecap:round;stroke-linejoin:round"></path><path d="M197.94,234.48c3.72-8.93,7.07-28.66,7.07-32a15.46,15.46,0,0,0-.74-5.22s-6.5-.48-12.14-.66c-1.79,25.78-14.43,31.61-21,32.3-7.07.74-15.26-6.33-18.61-11.91-2.55-4.26-1.64-16.11-1.06-21.48a51.26,51.26,0,0,1-8.61-4.57l-1.49,24.56s-.37,13.77,2.23,19,8.19,16.38,8.93,22.33a24.92,24.92,0,0,1-.83,7.44c8.28,15.63,14.92,29.29,16,36.46l1.2,0a56.22,56.22,0,0,0,7.21-.51c6.85-17.44,22.19-39.32,22.19-39.32l1.59-2.14c-3.53-4.77-6.06-7.53-6.06-7.53A55.42,55.42,0,0,1,197.94,234.48Z" style="fill:#263238;stroke:#263238;stroke-linecap:round;stroke-linejoin:round"></path><path d="M185.47,159.94s3.3-4.95,5.36-1.65c1.38,2.21,0,7-1.09,10a6.68,6.68,0,0,1-3.07,3.55l-2.43,1.32Z" style="fill:#fff;stroke:#263238;stroke-linecap:round;stroke-linejoin:round"></path><path d="M148.73,160.54s-3.65-3.39-3.91,1.83,5.48,10.17,5.48,10.17Z" style="fill:#fff;stroke:#263238;stroke-linecap:round;stroke-linejoin:round"></path><path d="M148.38,153.76s0,14.42,2.89,23.9,7.42,17.72,16.89,17.3,16.49-13.18,17.31-28a145.84,145.84,0,0,0,0-18.2,16.65,16.65,0,0,0-4.3-10.19c-2.88-3.11-7.63-6.22-15.08-6.22C151.27,132.33,148,146.34,148.38,153.76Z" style="fill:#fff;stroke:#263238;stroke-linecap:round;stroke-linejoin:round"></path><path d="M153.43,168.89s5-1.57,7,1" style="fill:none;stroke:#263238;stroke-linecap:round;stroke-linejoin:round"></path><path d="M170.91,169.67s4.18-2.87,7.83,0" style="fill:none;stroke:#263238;stroke-linecap:round;stroke-linejoin:round"></path><path d="M160.48,163.93s-5.22-3.39-8.09.26" style="fill:none;stroke:#263238;stroke-linecap:round;stroke-linejoin:round"></path><path d="M170.91,163.93s4.18-3.65,8.35,1.83" style="fill:none;stroke:#263238;stroke-linecap:round;stroke-linejoin:round"></path><path d="M162.3,178.54s2.35,3.92,6,1.57" style="fill:none;stroke:#263238;stroke-linecap:round;stroke-linejoin:round"></path><path d="M159.17,182.46a11.59,11.59,0,0,0,8.87,2.09c5-1.05,6.53-2.87,6.53-2.87s-3.92,6.26-7.57,7S159.17,182.46,159.17,182.46Z" style="fill:none;stroke:#263238;stroke-linecap:round;stroke-linejoin:round"></path><path d="M185.73,154.94c0-2.52-.14-4.61-.25-6.2a16.7,16.7,0,0,0-4.3-10.2c-2.88-3.1-7.63-6.21-15.08-6.21-14.83,0-18.13,14-17.72,21.43,0,0,0,.29,0,.81C154.33,157.08,166.47,160,185.73,154.94Z" style="fill:#263238;stroke:#263238;stroke-linecap:round;stroke-linejoin:round"></path><path d="M185.73,154.94s12.32-5.88,15.45-15-14.87-5-14.87-5,12-13.83,6.78-21.14-16.7,5-16.7,5,.26-29.75-10.43-29-8.35,32.09-8.35,32.09-11.48-12.26-16.18-5.48,7,20.35,7,20.35-12.78-3.39-12.78,5.48S149.26,154,149.26,154s11,4.17,15.91-6.53C165.17,147.49,163.24,158.74,185.73,154.94Z" style="fill:#fff;stroke:#263238;stroke-linecap:round;stroke-linejoin:round"></path><path d="M172.48,134.84c0,3.82-2.4,6.91-5.35,6.91s-5.35-3.09-5.35-6.91,2.4-6.92,5.35-6.92S172.48,131,172.48,134.84Z" style="fill:#263238;stroke:#263238;stroke-linecap:round;stroke-linejoin:round"></path><path d="M155.37,105.77c.5-3.11-6.05-2-6.05-2L145.58,105a49,49,0,0,0-8.56,4.49,19.34,19.34,0,0,0-3.47,2.23,44.62,44.62,0,0,0-8.18,8.18s-33.5,27.54-40.57,40.94a5.41,5.41,0,0,0-.37,4.84c1.12,2.61,16,21.21,29.77,32s26.43,19.72,26.43,19.72l-1.49-26.42-37.59-28.29a118.36,118.36,0,0,0,14.51-17.12l15.63-23.44s9.31-1.49,10.8-1.86a11.58,11.58,0,0,1,2.6-.38s3-3.34,5.21-4.09S154,112,152.16,112h-3s1.67-1.37,3.27-2.75a9.64,9.64,0,0,0,2.15-1.94l.16-.15C155.29,106.67,155.53,106.15,155.37,105.77Z" style="fill:#fff;stroke:#263238;stroke-linecap:round;stroke-linejoin:round"></path><polygon points="126.31 119.34 131.69 122.09 120.34 144.13 106.57 133.68 126.31 119.34" style="fill:#263238;stroke:#263238;stroke-linecap:round;stroke-linejoin:round"></polygon><path d="M305.16,153.48s5.31.42,6.28.42,2,.42.84,1.12-4.33.55-5.3.83l-1,.28h-1.53a34.09,34.09,0,0,0,6,1c2.09,0,1.11,1.26-1.12,1.67a15.66,15.66,0,0,1-2.66.23c-1.44,0-2.64-.09-2.64-.09s4.6.42,3.21,1.12-2,1-4.89.7-4.05-.42-4.05-.42a4.65,4.65,0,0,0-1.67.7c-.42.42-2.37,1.67-1.4-1s5.17-5.3,6.84-6.14A4.48,4.48,0,0,1,305.16,153.48Z" style="fill:#fff;stroke:#263238;stroke-linecap:round;stroke-linejoin:round"></path><path d="M209.85,195.78l18.61-3.35,55.82-27.92s11.54-9.67,13.77-10.79,14.14-4.09,14.14-3a2.86,2.86,0,0,1-.56,1.77s-4.23,1.77-5.72,2.51-4.88,3.17-4.88,3.17l-2.24,2.23a6.53,6.53,0,0,0,4.47,1.49c3,0,6.33-1.12,6.33.74s-2.61,2.24-6.33,2.61S288,168.61,288,168.61s-43.17,31.63-48.38,35-14.51,6.33-15.63,6.7-14.89,2.61-14.89,2.61Z" style="fill:#fff;stroke:#263238;stroke-linecap:round;stroke-linejoin:round"></path><polygon points="284.28 164.51 287.02 169.42 265.42 189.26 257.77 174.73 284.28 164.51" style="fill:#263238;stroke:#263238;stroke-linecap:round;stroke-linejoin:round"></polygon><path d="M128.21,193.19c0,.29,0,.58,0,.88.16,6.47-.27,24.87,6.66,27.1,6.13,2,10.11-10.91,11.14-16,2.95-14.74-.09-27.16-5.8-27.75C131.45,176.49,128.22,184.46,128.21,193.19Z" style="fill:#fff;stroke:#263238;stroke-linecap:round;stroke-linejoin:round"></path><path d="M194.3,197.17c0,.26.06.52.1.78.84,5.76,2.36,22.18,9.75,23.54,6.53,1.19,9.28-10.65,9.79-15.29C215.43,192.8,211,182,205,182,195.86,182,193.38,189.4,194.3,197.17Z" style="fill:#fff;stroke:#263238;stroke-linecap:round;stroke-linejoin:round"></path><polyline points="149.19 112.04 143.57 115.6 136.95 115.88" style="fill:none;stroke:#263238;stroke-linecap:round;stroke-linejoin:round"></polyline><line x1="155.37" y1="105.77" x2="145.01" y2="111.57" style="fill:none;stroke:#263238;stroke-linecap:round;stroke-linejoin:round"></line><line x1="152.78" y1="104.09" x2="142.13" y2="109.55" style="fill:none;stroke:#263238;stroke-linecap:round;stroke-linejoin:round"></line></g></svg>